<svg id="visual" viewBox="0 0 960 540" width="960" height="540" xmlns="http://www.w3.org/2000/svg" xmlns:xlink="http://www.w3.org/1999/xlink" version="1.1"><path d="M0 33L137 33L274 28L411 44L549 39L686 28L823 33L960 39L960 0L823 0L686 0L549 0L411 0L274 0L137 0L0 0Z" fill="#031427"></path><path d="M0 158L137 152L274 131L411 136L549 195L686 163L823 147L960 201L960 37L823 31L686 26L549 37L411 42L274 26L137 31L0 31Z" fill="#192f3c"></path><path d="M0 266L137 239L274 282L411 271L549 293L686 249L823 260L960 298L960 199L823 145L686 161L549 193L411 134L274 129L137 150L0 156Z" fill="#384b50"></path><path d="M0 298L137 260L274 314L411 303L549 314L686 266L823 282L960 320L960 296L823 258L686 247L549 291L411 269L274 280L137 237L0 264Z" fill="#5b6767"></path><path d="M0 352L137 314L274 374L411 341L549 357L686 325L823 341L960 357L960 318L823 280L686 264L549 312L411 301L274 312L137 258L0 296Z" fill="#717877"></path><path d="M0 390L137 336L274 395L411 374L549 379L686 357L823 379L960 379L960 355L823 339L686 323L549 355L411 339L274 372L137 312L0 350Z" fill="#717877"></path><path d="M0 422L137 379L274 422L411 401L549 406L686 384L823 401L960 422L960 377L823 377L686 355L549 377L411 372L274 393L137 334L0 388Z" fill="#5b6767"></path><path d="M0 444L137 411L274 444L411 433L549 433L686 411L823 428L960 455L960 420L823 399L686 382L549 404L411 399L274 420L137 377L0 420Z" fill="#384b50"></path><path d="M0 487L137 460L274 487L411 487L549 476L686 449L823 482L960 492L960 453L823 426L686 409L549 431L411 431L274 442L137 409L0 442Z" fill="#192f3c"></path><path d="M0 541L137 541L274 541L411 541L549 541L686 541L823 541L960 541L960 490L823 480L686 447L549 474L411 485L274 485L137 458L0 485Z" fill="#031427"></path></svg>